<svg xmlns="http://www.w3.org/2000/svg" viewBox="0 0 128 128" role="img" aria-labelledby="title">
  <title id="title">bleen</title>
  <!-- Single-colour glyph: tray / macOS template image / favicon at 16 px. -->
  <defs>
    <mask id="eyes">
      <rect width="128" height="128" fill="#FFFFFF"/>
      <ellipse cx="53" cy="63" rx="6" ry="8.5" fill="#000000"/>
      <ellipse cx="75" cy="63" rx="6" ry="8.5" fill="#000000"/>
    </mask>
  </defs>
  <g transform="rotate(-10 64 64)">
    <path d="M33 37C41.3 33.2 53.7 41.5 64 41.5C74.3 41.5 86.7 33.2 95 37C103.3 40.8 114 55 114 64C114 73 103.3 85.8 95 91C86.7 96.2 74.3 95 64 95C53.7 95 41.3 96.2 33 91C24.7 85.8 14 73 14 64C14 55 24.7 40.8 33 37Z" fill="#000000" mask="url(#eyes)"/>
  </g>
</svg>
